<svg width="164" height="36" viewBox="0 0 164 36" fill="none" xmlns="http://www.w3.org/2000/svg">
<path d="M15.7734 35H9V8.89062L0.914062 11.3984V5.89062L15.0469 0.828125H15.7734V35ZM54.6797 21.3594C52.9141 23.0938 50.8516 23.9609 48.4922 23.9609C45.4766 23.9609 43.0625 22.9297 41.25 20.8672C39.4375 18.7891 38.5312 15.9922 38.5312 12.4766C38.5312 10.2422 39.0156 8.19531 39.9844 6.33594C40.9688 4.46094 42.3359 3.00781 44.0859 1.97656C45.8359 0.929687 47.8047 0.40625 49.9922 0.40625C52.2422 0.40625 54.2422 0.96875 55.9922 2.09375C57.7422 3.21875 59.1016 4.83594 60.0703 6.94531C61.0391 9.05469 61.5312 11.4688 61.5469 14.1875V16.6953C61.5469 22.3828 60.1328 26.8516 57.3047 30.1016C54.4766 33.3516 50.4688 35.0859 45.2812 35.3047L43.6172 35.3281V29.6797L45.1172 29.6562C51.0078 29.3906 54.1953 26.625 54.6797 21.3594ZM50.1562 18.7812C51.25 18.7812 52.1875 18.5 52.9688 17.9375C53.7656 17.375 54.3672 16.6953 54.7734 15.8984V13.1094C54.7734 10.8125 54.3359 9.03125 53.4609 7.76562C52.5859 6.5 51.4141 5.86719 49.9453 5.86719C48.5859 5.86719 47.4688 6.49219 46.5938 7.74219C45.7188 8.97656 45.2812 10.5312 45.2812 12.4062C45.2812 14.2656 45.7031 15.7969 46.5469 17C47.4062 18.1875 48.6094 18.7812 50.1562 18.7812ZM89.3672 20.8906C89.3672 25.6094 88.3906 29.2188 86.4375 31.7188C84.4844 34.2188 81.625 35.4688 77.8594 35.4688C74.1406 35.4688 71.2969 34.2422 69.3281 31.7891C67.3594 29.3359 66.3516 25.8203 66.3047 21.2422V14.9609C66.3047 10.1953 67.2891 6.57812 69.2578 4.10938C71.2422 1.64063 74.0938 0.40625 77.8125 0.40625C81.5312 0.40625 84.375 1.63281 86.3438 4.08594C88.3125 6.52344 89.3203 10.0312 89.3672 14.6094V20.8906ZM82.5938 14C82.5938 11.1719 82.2031 9.11719 81.4219 7.83594C80.6562 6.53906 79.4531 5.89062 77.8125 5.89062C76.2188 5.89062 75.0391 6.50781 74.2734 7.74219C73.5234 8.96094 73.125 10.875 73.0781 13.4844V21.7812C73.0781 24.5625 73.4531 26.6328 74.2031 27.9922C74.9688 29.3359 76.1875 30.0078 77.8594 30.0078C79.5156 30.0078 80.7109 29.3594 81.4453 28.0625C82.1797 26.7656 82.5625 24.7812 82.5938 22.1094V14ZM116.93 20.8906C116.93 25.6094 115.953 29.2188 114 31.7188C112.047 34.2188 109.188 35.4688 105.422 35.4688C101.703 35.4688 98.8594 34.2422 96.8906 31.7891C94.9219 29.3359 93.9141 25.8203 93.8672 21.2422V14.9609C93.8672 10.1953 94.8516 6.57812 96.8203 4.10938C98.8047 1.64063 101.656 0.40625 105.375 0.40625C109.094 0.40625 111.938 1.63281 113.906 4.08594C115.875 6.52344 116.883 10.0312 116.93 14.6094V20.8906ZM110.156 14C110.156 11.1719 109.766 9.11719 108.984 7.83594C108.219 6.53906 107.016 5.89062 105.375 5.89062C103.781 5.89062 102.602 6.50781 101.836 7.74219C101.086 8.96094 100.688 10.875 100.641 13.4844V21.7812C100.641 24.5625 101.016 26.6328 101.766 27.9922C102.531 29.3359 103.75 30.0078 105.422 30.0078C107.078 30.0078 108.273 29.3594 109.008 28.0625C109.742 26.7656 110.125 24.7812 110.156 22.1094V14ZM151.594 30.4531H144.141V35H137.109V30.4531H132.352V24.7578H137.109V22.9766H132.352V17.2812H137.109V0.875H150.375C152.938 0.875 155.188 1.33594 157.125 2.25781C159.062 3.17969 160.562 4.5 161.625 6.21875C162.703 7.92188 163.242 9.86719 163.242 12.0547C163.242 15.4297 162.094 18.0938 159.797 20.0469C157.516 22 154.336 22.9766 150.258 22.9766H144.141V24.7578H151.594V30.4531ZM144.141 17.2812H150.211C154.148 17.2812 156.117 15.5547 156.117 12.1016C156.117 10.4609 155.617 9.14063 154.617 8.14062C153.617 7.125 152.234 6.60938 150.469 6.59375H144.141V17.2812Z" fill="#D61919"/>
</svg>
