<svg width="82" height="19" viewBox="0 0 82 19" fill="none" xmlns="http://www.w3.org/2000/svg">
<path d="M9.72656 10.5C9.27344 11.0391 8.73047 11.4727 8.09766 11.8008C7.47266 12.1289 6.78516 12.293 6.03516 12.293C5.05078 12.293 4.19141 12.0508 3.45703 11.5664C2.73047 11.082 2.16797 10.4023 1.76953 9.52734C1.37109 8.64453 1.17188 7.67188 1.17188 6.60938C1.17188 5.46875 1.38672 4.44141 1.81641 3.52734C2.25391 2.61328 2.87109 1.91406 3.66797 1.42969C4.46484 0.945313 5.39453 0.703125 6.45703 0.703125C8.14453 0.703125 9.47266 1.33594 10.4414 2.60156C11.418 3.85937 11.9062 5.57812 11.9062 7.75781V8.39062C11.9062 11.7109 11.25 14.1367 9.9375 15.668C8.625 17.1914 6.64453 17.9727 3.99609 18.0117H3.57422V16.1836H4.03125C5.82031 16.1523 7.19531 15.6875 8.15625 14.7891C9.11719 13.8828 9.64062 12.4531 9.72656 10.5ZM6.38672 10.5C7.11328 10.5 7.78125 10.2773 8.39062 9.83203C9.00781 9.38672 9.45703 8.83594 9.73828 8.17969V7.3125C9.73828 5.89063 9.42969 4.73438 8.8125 3.84375C8.19531 2.95312 7.41406 2.50781 6.46875 2.50781C5.51562 2.50781 4.75 2.875 4.17188 3.60938C3.59375 4.33594 3.30469 5.29688 3.30469 6.49219C3.30469 7.65625 3.58203 8.61719 4.13672 9.375C4.69922 10.125 5.44922 10.5 6.38672 10.5ZM29.1562 10.5C28.7031 11.0391 28.1602 11.4727 27.5273 11.8008C26.9023 12.1289 26.2148 12.293 25.4648 12.293C24.4805 12.293 23.6211 12.0508 22.8867 11.5664C22.1602 11.082 21.5977 10.4023 21.1992 9.52734C20.8008 8.64453 20.6016 7.67188 20.6016 6.60938C20.6016 5.46875 20.8164 4.44141 21.2461 3.52734C21.6836 2.61328 22.3008 1.91406 23.0977 1.42969C23.8945 0.945313 24.8242 0.703125 25.8867 0.703125C27.5742 0.703125 28.9023 1.33594 29.8711 2.60156C30.8477 3.85937 31.3359 5.57812 31.3359 7.75781V8.39062C31.3359 11.7109 30.6797 14.1367 29.3672 15.668C28.0547 17.1914 26.0742 17.9727 23.4258 18.0117H23.0039V16.1836H23.4609C25.25 16.1523 26.625 15.6875 27.5859 14.7891C28.5469 13.8828 29.0703 12.4531 29.1562 10.5ZM25.8164 10.5C26.543 10.5 27.2109 10.2773 27.8203 9.83203C28.4375 9.38672 28.8867 8.83594 29.168 8.17969V7.3125C29.168 5.89063 28.8594 4.73438 28.2422 3.84375C27.625 2.95312 26.8438 2.50781 25.8984 2.50781C24.9453 2.50781 24.1797 2.875 23.6016 3.60938C23.0234 4.33594 22.7344 5.29688 22.7344 6.49219C22.7344 7.65625 23.0117 8.61719 23.5664 9.375C24.1289 10.125 24.8789 10.5 25.8164 10.5ZM45.0234 10.7227C45.0234 13.2617 44.5898 15.1484 43.7227 16.3828C42.8555 17.6172 41.5 18.2344 39.6562 18.2344C37.8359 18.2344 36.4883 17.6328 35.6133 16.4297C34.7383 15.2188 34.2852 13.4141 34.2539 11.0156V8.12109C34.2539 5.61328 34.6875 3.75 35.5547 2.53125C36.4219 1.3125 37.7812 0.703125 39.6328 0.703125C41.4688 0.703125 42.8203 1.29297 43.6875 2.47266C44.5547 3.64453 45 5.45703 45.0234 7.91016V10.7227ZM42.8555 7.75781C42.8555 5.92187 42.5977 4.58594 42.082 3.75C41.5664 2.90625 40.75 2.48438 39.6328 2.48438C38.5234 2.48438 37.7148 2.90234 37.207 3.73828C36.6992 4.57422 36.4375 5.85938 36.4219 7.59375V11.0625C36.4219 12.9062 36.6875 14.2695 37.2188 15.1523C37.7578 16.0273 38.5703 16.4648 39.6562 16.4648C40.7266 16.4648 41.5195 16.0508 42.0352 15.2227C42.5586 14.3945 42.832 13.0898 42.8555 11.3086V7.75781ZM58.5 10.7227C58.5 13.2617 58.0664 15.1484 57.1992 16.3828C56.332 17.6172 54.9766 18.2344 53.1328 18.2344C51.3125 18.2344 49.9648 17.6328 49.0898 16.4297C48.2148 15.2188 47.7617 13.4141 47.7305 11.0156V8.12109C47.7305 5.61328 48.1641 3.75 49.0312 2.53125C49.8984 1.3125 51.2578 0.703125 53.1094 0.703125C54.9453 0.703125 56.2969 1.29297 57.1641 2.47266C58.0312 3.64453 58.4766 5.45703 58.5 7.91016V10.7227ZM56.332 7.75781C56.332 5.92187 56.0742 4.58594 55.5586 3.75C55.043 2.90625 54.2266 2.48438 53.1094 2.48438C52 2.48438 51.1914 2.90234 50.6836 3.73828C50.1758 4.57422 49.9141 5.85938 49.8984 7.59375V11.0625C49.8984 12.9062 50.1641 14.2695 50.6953 15.1523C51.2344 16.0273 52.0469 16.4648 53.1328 16.4648C54.2031 16.4648 54.9961 16.0508 55.5117 15.2227C56.0352 14.3945 56.3086 13.0898 56.332 11.3086V7.75781ZM74.7656 14.7773H70.8398V18H68.6016V14.7773H66.1758V12.9258H68.6016V11.3203H66.1758V9.48047H68.6016V0.9375H74.8945C76.7227 0.9375 78.1719 1.40234 79.2422 2.33203C80.3125 3.26172 80.8477 4.51953 80.8477 6.10547C80.8477 7.76953 80.332 9.05469 79.3008 9.96094C78.2773 10.8594 76.8203 11.3125 74.9297 11.3203H70.8398V12.9258H74.7656V14.7773ZM70.8398 9.48047H74.8945C76.1055 9.48047 77.0273 9.19531 77.6602 8.625C78.293 8.05469 78.6094 7.22266 78.6094 6.12891C78.6094 5.13672 78.2812 4.33594 77.625 3.72656C76.9688 3.10937 76.082 2.79688 74.9648 2.78906H70.8398V9.48047Z" fill="black"/>
<path d="M0 12H81.7383V13.1953H0V12Z" fill="black"/>
</svg>
